<?xml version="1.0" standalone="no"?>
<!DOCTYPE svg PUBLIC "-//W3C//DTD SVG 20010904//EN"
 "http://www.w3.org/TR/2001/REC-SVG-20010904/DTD/svg10.dtd">
<svg version="1.0" xmlns="http://www.w3.org/2000/svg"
 width="380.000000pt" height="380.000000pt" viewBox="0 0 380.000000 380.000000"
 preserveAspectRatio="xMidYMid meet">
<metadata>
Created by potrace 1.14, written by Peter Selinger 2001-2017
</metadata>
<g transform="translate(0.000000,380.000000) scale(0.100000,-0.100000)"
fill="#000000" stroke="none">
<path d="M1888 3565 c-1 -2 -32 -6 -68 -9 -135 -12 -276 -60 -397 -137 -86
-54 -96 -62 -194 -159 -187 -186 -292 -424 -314 -711 -5 -63 -12 -89 -26 -104
-19 -19 -19 -19 -86 17 -211 114 -439 134 -498 44 -49 -75 -37 -125 51 -218
60 -62 114 -152 114 -190 0 -29 58 -194 90 -260 32 -64 96 -148 137 -181 32
-26 29 -34 -14 -41 -136 -24 -339 -110 -438 -186 -130 -97 -205 -211 -213
-321 -4 -51 -2 -59 27 -92 50 -57 106 -66 201 -32 89 32 193 37 370 21 102
-10 294 -12 348 -3 17 3 32 2 32 -2 0 -4 -9 -34 -21 -67 -54 -155 -70 -330
-43 -489 28 -167 71 -220 171 -212 65 5 79 17 151 127 143 222 247 333 422
449 37 25 103 79 145 119 l76 72 92 -85 c51 -47 138 -118 195 -157 129 -89
194 -159 316 -343 115 -172 136 -189 212 -183 34 3 61 12 75 24 26 23 55 79
62 119 3 17 11 57 17 90 23 129 5 314 -45 464 -14 41 -24 75 -22 77 1 1 27 -2
57 -6 66 -9 285 -4 356 8 90 15 223 6 342 -24 88 -23 134 -21 171 5 88 63 56
231 -70 360 -105 108 -249 188 -435 241 -60 18 -116 34 -124 36 -10 4 0 19 35
53 97 92 139 172 187 351 26 99 77 195 142 267 67 74 77 93 71 140 -6 49 -32
83 -81 108 -80 39 -252 12 -409 -66 -43 -21 -86 -39 -95 -39 -33 1 -50 26 -50
76 0 51 -24 217 -34 232 -3 5 -8 24 -11 43 -8 44 -69 188 -113 264 -164 283
-461 480 -757 501 -44 3 -85 7 -92 9 -6 2 -13 2 -15 0z"/>
</g>
</svg>
